<svg xmlns="http://www.w3.org/2000/svg" width="26" height="26" viewBox="0 0 26 26">
  <g fill="none" fill-rule="evenodd" opacity=".7">
    <ellipse cx="12.984" cy="13.082" fill="#787878" rx="12.745" ry="12.889"/>
    <path fill="#FFFFFF" d="M17.1284089,4.14954161 L14.3049684,4.14954161 C12.6294445,4.14954161 10.7657894,4.86216205 10.7657894,7.31819269 C10.773969,8.17396744 10.7657894,8.99354879 10.7657894,9.91593339 L8.82743568,9.91593339 L8.82743568,13.0350866 L10.8257732,13.0350866 L10.8257732,22.0145944 L14.497817,22.0145944 L14.497817,12.9758292 L16.9214948,12.9758292 L17.1407865,9.90718045 L14.4345439,9.90718045 C14.4345439,9.90718045 14.4406029,8.54211601 14.4345439,8.14569545 C14.4345439,7.17512592 15.4332367,7.23070708 15.4933071,7.23070708 C15.9685474,7.23070708 16.8925848,7.23210755 17.1297938,7.23070708 L17.1297938,4.14954161 L17.1284089,4.14954161 L17.1284089,4.14954161 Z"/>
  </g>
</svg>
