<svg xmlns="http://www.w3.org/2000/svg" width="193" height="39" viewBox="0 0 193 39">
  <path fill="#FFFFFF" fill-rule="evenodd" d="M129.156,254.292 C125.308,254.292 122.604,251.276 122.604,247.272 C122.604,243.268 125.308,240.252 129.156,240.252 C131.496,240.252 133.004,241.24 134.46,242.54 C134.876,242.904 135.24,242.956 135.604,242.592 L138.776,239.524 C139.088,239.212 139.14,238.796 138.828,238.432 C136.436,235.676 132.952,233.908 129,233.908 C121.668,233.908 116,239.784 116,247.272 C116,254.76 121.668,260.636 129,260.636 C133.056,260.636 136.592,258.868 138.984,256.112 C139.296,255.748 139.244,255.332 138.932,255.02 L135.76,252.004 C135.396,251.64 135.032,251.64 134.616,252.004 C133.16,253.304 131.6,254.292 129.156,254.292 L129.156,254.292 Z M144.6845,222.78 L144.6845,259.18 C144.6845,259.648 144.9965,259.96 145.4645,259.96 L150.7685,259.96 C151.2365,259.96 151.5485,259.648 151.5485,259.18 L151.5485,222.78 C151.5485,222.312 151.2365,222 150.7685,222 L145.4645,222 C144.9965,222 144.6845,222.312 144.6845,222.78 L144.6845,222.78 Z M181.221,234.48 L175.917,234.48 C175.449,234.48 175.137,234.792 175.137,235.26 L175.137,249.352 C175.137,251.172 173.317,254.292 169.625,254.292 C167.181,254.292 164.737,252.836 164.737,248.624 L164.737,235.26 C164.737,234.792 164.425,234.48 163.957,234.48 L158.653,234.48 C158.185,234.48 157.873,234.792 157.873,235.26 L157.873,249.872 C157.873,256.684 161.825,260.636 167.545,260.636 C170.769,260.636 173.369,258.816 175.137,256.32 L175.345,259.18 C175.397,259.648 175.657,259.96 176.125,259.96 L181.221,259.96 C181.689,259.96 182.001,259.648 182.001,259.18 L182.001,235.26 C182.001,234.792 181.689,234.48 181.221,234.48 L181.221,234.48 Z M202.7815,233.908 C199.7655,233.908 197.2695,235.26 195.3975,237.236 L195.3975,222.78 C195.3975,222.312 195.0855,222 194.6175,222 L189.3135,222 C188.8455,222 188.5335,222.312 188.5335,222.78 L188.5335,259.18 C188.5335,259.648 188.8455,259.96 189.3135,259.96 L194.0975,259.96 C194.5655,259.96 194.8255,259.648 194.8775,259.18 L195.0855,256.996 C196.9055,259.128 199.4535,260.636 202.7815,260.636 C209.9055,260.636 215.1055,254.708 215.1055,247.272 C215.1055,239.836 209.9055,233.908 202.7815,233.908 L202.7815,233.908 Z M201.9495,254.396 C198.2055,254.396 195.4495,251.068 195.4495,247.22 C195.4495,243.372 198.2055,240.148 201.9495,240.148 C205.7455,240.148 208.5015,243.164 208.5015,247.22 C208.5015,251.328 205.7455,254.396 201.9495,254.396 L201.9495,254.396 Z M235.782,233.908 C232.09,233.908 229.386,235.936 227.722,238.64 L227.722,222.78 C227.722,222.312 227.41,222 226.942,222 L221.638,222 C221.17,222 220.858,222.312 220.858,222.78 L220.858,259.18 C220.858,259.648 221.17,259.96 221.638,259.96 L226.942,259.96 C227.41,259.96 227.722,259.648 227.722,259.18 L227.722,245.244 C227.722,244.048 229.49,240.252 233.338,240.252 C235.834,240.252 238.122,241.708 238.122,245.92 L238.122,259.18 C238.122,259.648 238.434,259.96 238.902,259.96 L244.206,259.96 C244.674,259.96 244.986,259.648 244.986,259.18 L244.986,244.672 C244.986,237.86 240.982,233.908 235.782,233.908 L235.782,233.908 Z M274.6065,234.48 L269.3025,234.48 C268.8345,234.48 268.5225,234.792 268.5225,235.26 L268.5225,249.352 C268.5225,251.172 266.7025,254.292 263.0105,254.292 C260.5665,254.292 258.1225,252.836 258.1225,248.624 L258.1225,235.26 C258.1225,234.792 257.8105,234.48 257.3425,234.48 L252.0385,234.48 C251.5705,234.48 251.2585,234.792 251.2585,235.26 L251.2585,249.872 C251.2585,256.684 255.2105,260.636 260.9305,260.636 C264.1545,260.636 266.7545,258.816 268.5225,256.32 L268.7305,259.18 C268.7825,259.648 269.0425,259.96 269.5105,259.96 L274.6065,259.96 C275.0745,259.96 275.3865,259.648 275.3865,259.18 L275.3865,235.26 C275.3865,234.792 275.0745,234.48 274.6065,234.48 L274.6065,234.48 Z M296.167,233.908 C293.151,233.908 290.655,235.26 288.783,237.236 L288.783,222.78 C288.783,222.312 288.471,222 288.003,222 L282.699,222 C282.231,222 281.919,222.312 281.919,222.78 L281.919,259.18 C281.919,259.648 282.231,259.96 282.699,259.96 L287.483,259.96 C287.951,259.96 288.211,259.648 288.263,259.18 L288.471,256.996 C290.291,259.128 292.839,260.636 296.167,260.636 C303.291,260.636 308.491,254.708 308.491,247.272 C308.491,239.836 303.291,233.908 296.167,233.908 L296.167,233.908 Z M295.335,254.396 C291.591,254.396 288.835,251.068 288.835,247.22 C288.835,243.372 291.591,240.148 295.335,240.148 C299.131,240.148 301.887,243.164 301.887,247.22 C301.887,251.328 299.131,254.396 295.335,254.396 L295.335,254.396 Z" transform="translate(-116 -222)"/>
</svg>
