<svg xmlns="http://www.w3.org/2000/svg" width="162" height="33" viewBox="0 0 162 33">
  <path fill="#787878" fill-rule="evenodd" d="M119.036555,225.089725 C115.808471,225.089725 113.540089,222.559606 113.540089,219.200654 C113.540089,215.841703 115.808471,213.311584 119.036555,213.311584 C120.999578,213.311584 122.264638,214.140416 123.486075,215.230984 C123.835057,215.536344 124.140416,215.579966 124.445775,215.274607 L127.106763,212.700865 C127.368499,212.439129 127.412122,212.090147 127.150385,211.784788 C125.143739,209.472782 122.221015,207.989609 118.905686,207.989609 C112.754879,207.989609 108,212.918979 108,219.200654 C108,225.48233 112.754879,230.4117 118.905686,230.4117 C122.308261,230.4117 125.274607,228.928527 127.281253,226.616521 C127.54299,226.311162 127.499367,225.96218 127.237631,225.700443 L124.576643,223.170324 C124.271284,222.864965 123.965925,222.864965 123.616943,223.170324 C122.395506,224.260893 121.086824,225.089725 119.036555,225.089725 L119.036555,225.089725 Z M132.063397,198.654341 L132.063397,229.190263 C132.063397,229.582868 132.325133,229.844604 132.717738,229.844604 L137.167258,229.844604 C137.559863,229.844604 137.821599,229.582868 137.821599,229.190263 L137.821599,198.654341 C137.821599,198.261736 137.559863,198 137.167258,198 L132.717738,198 C132.325133,198 132.063397,198.261736 132.063397,198.654341 L132.063397,198.654341 Z M162.713828,208.469459 L158.264308,208.469459 C157.871704,208.469459 157.609967,208.731195 157.609967,209.1238 L157.609967,220.945564 C157.609967,222.47236 156.083171,225.089725 152.985956,225.089725 C150.935687,225.089725 148.885418,223.868288 148.885418,220.334846 L148.885418,209.1238 C148.885418,208.731195 148.623682,208.469459 148.231077,208.469459 L143.781557,208.469459 C143.388952,208.469459 143.127216,208.731195 143.127216,209.1238 L143.127216,221.381792 C143.127216,227.096371 146.442544,230.4117 151.241046,230.4117 C153.945657,230.4117 156.126794,228.884904 157.609967,226.791012 L157.784458,229.190263 C157.828081,229.582868 158.046195,229.844604 158.438799,229.844604 L162.713828,229.844604 C163.106433,229.844604 163.36817,229.582868 163.36817,229.190263 L163.36817,209.1238 C163.36817,208.731195 163.106433,208.469459 162.713828,208.469459 L162.713828,208.469459 Z M180.800909,207.989609 C178.27079,207.989609 176.176898,209.1238 174.606479,210.781464 L174.606479,198.654341 C174.606479,198.261736 174.344743,198 173.952138,198 L169.502618,198 C169.110014,198 168.848277,198.261736 168.848277,198.654341 L168.848277,229.190263 C168.848277,229.582868 169.110014,229.844604 169.502618,229.844604 L173.515911,229.844604 C173.908516,229.844604 174.126629,229.582868 174.170252,229.190263 L174.344743,227.358108 C175.871539,229.14664 178.009054,230.4117 180.800909,230.4117 C186.777225,230.4117 191.1395,225.438707 191.1395,219.200654 C191.1395,212.962602 186.777225,207.989609 180.800909,207.989609 L180.800909,207.989609 Z M180.102945,225.17697 C176.962108,225.17697 174.650102,222.385115 174.650102,219.157032 C174.650102,215.928948 176.962108,213.224338 180.102945,213.224338 C183.287406,213.224338 185.599411,215.754457 185.599411,219.157032 C185.599411,222.603228 183.287406,225.17697 180.102945,225.17697 L180.102945,225.17697 Z M208.484994,207.989609 C205.387779,207.989609 203.119396,209.690896 201.723469,211.959279 L201.723469,198.654341 C201.723469,198.261736 201.461732,198 201.069127,198 L196.619607,198 C196.227003,198 195.965266,198.261736 195.965266,198.654341 L195.965266,229.190263 C195.965266,229.582868 196.227003,229.844604 196.619607,229.844604 L201.069127,229.844604 C201.461732,229.844604 201.723469,229.582868 201.723469,229.190263 L201.723469,217.499367 C201.723469,216.496044 203.206642,213.311584 206.434725,213.311584 C208.528617,213.311584 210.448018,214.533021 210.448018,218.066463 L210.448018,229.190263 C210.448018,229.582868 210.709754,229.844604 211.102359,229.844604 L215.551879,229.844604 C215.944484,229.844604 216.20622,229.582868 216.20622,229.190263 L216.20622,217.019517 C216.20622,211.304937 212.847269,207.989609 208.484994,207.989609 L208.484994,207.989609 Z M241.054826,208.469459 L236.605306,208.469459 C236.212702,208.469459 235.950965,208.731195 235.950965,209.1238 L235.950965,220.945564 C235.950965,222.47236 234.424169,225.089725 231.326954,225.089725 C229.276685,225.089725 227.226416,223.868288 227.226416,220.334846 L227.226416,209.1238 C227.226416,208.731195 226.96468,208.469459 226.572075,208.469459 L222.122555,208.469459 C221.72995,208.469459 221.468214,208.731195 221.468214,209.1238 L221.468214,221.381792 C221.468214,227.096371 224.783542,230.4117 229.582044,230.4117 C232.286655,230.4117 234.467792,228.884904 235.950965,226.791012 L236.125456,229.190263 C236.169079,229.582868 236.387193,229.844604 236.779797,229.844604 L241.054826,229.844604 C241.447431,229.844604 241.709168,229.582868 241.709168,229.190263 L241.709168,209.1238 C241.709168,208.731195 241.447431,208.469459 241.054826,208.469459 L241.054826,208.469459 Z M259.141907,207.989609 C256.611788,207.989609 254.517896,209.1238 252.947477,210.781464 L252.947477,198.654341 C252.947477,198.261736 252.685741,198 252.293136,198 L247.843616,198 C247.451012,198 247.189275,198.261736 247.189275,198.654341 L247.189275,229.190263 C247.189275,229.582868 247.451012,229.844604 247.843616,229.844604 L251.856909,229.844604 C252.249514,229.844604 252.467627,229.582868 252.51125,229.190263 L252.685741,227.358108 C254.212537,229.14664 256.350052,230.4117 259.141907,230.4117 C265.118223,230.4117 269.480498,225.438707 269.480498,219.200654 C269.480498,212.962602 265.118223,207.989609 259.141907,207.989609 L259.141907,207.989609 Z M258.443943,225.17697 C255.303106,225.17697 252.9911,222.385115 252.9911,219.157032 C252.9911,215.928948 255.303106,213.224338 258.443943,213.224338 C261.628404,213.224338 263.940409,215.754457 263.940409,219.157032 C263.940409,222.603228 261.628404,225.17697 258.443943,225.17697 L258.443943,225.17697 Z" transform="translate(-108 -198)"/>
</svg>
