<svg xmlns="http://www.w3.org/2000/svg" width="193" height="40" viewBox="0 0 193 40">
  <path fill="#787575" fill-rule="evenodd" d="M613.377642,229.227559 C609.529642,229.227559 606.825642,226.211559 606.825642,222.207559 C606.825642,218.203559 609.529642,215.187559 613.377642,215.187559 C615.717642,215.187559 617.225642,216.175559 618.681642,217.475559 C619.097642,217.839559 619.461642,217.891559 619.825642,217.527559 L622.997642,214.459559 C623.309642,214.147559 623.361642,213.731559 623.049642,213.367559 C620.657642,210.611559 617.173642,208.843559 613.221642,208.843559 C605.889642,208.843559 600.221642,214.719559 600.221642,222.207559 C600.221642,229.695559 605.889642,235.571559 613.221642,235.571559 C617.277642,235.571559 620.813642,233.803559 623.205642,231.047559 C623.517642,230.683559 623.465642,230.267559 623.153642,229.955559 L619.981642,226.939559 C619.617642,226.575559 619.253642,226.575559 618.837642,226.939559 C617.381642,228.239559 615.821642,229.227559 613.377642,229.227559 L613.377642,229.227559 Z M628.906142,197.715559 L628.906142,234.115559 C628.906142,234.583559 629.218142,234.895559 629.686142,234.895559 L634.990142,234.895559 C635.458142,234.895559 635.770142,234.583559 635.770142,234.115559 L635.770142,197.715559 C635.770142,197.247559 635.458142,196.935559 634.990142,196.935559 L629.686142,196.935559 C629.218142,196.935559 628.906142,197.247559 628.906142,197.715559 L628.906142,197.715559 Z M665.442642,209.415559 L660.138642,209.415559 C659.670642,209.415559 659.358642,209.727559 659.358642,210.195559 L659.358642,224.287559 C659.358642,226.107559 657.538642,229.227559 653.846642,229.227559 C651.402642,229.227559 648.958642,227.771559 648.958642,223.559559 L648.958642,210.195559 C648.958642,209.727559 648.646642,209.415559 648.178642,209.415559 L642.874642,209.415559 C642.406642,209.415559 642.094642,209.727559 642.094642,210.195559 L642.094642,224.807559 C642.094642,231.619559 646.046642,235.571559 651.766642,235.571559 C654.990642,235.571559 657.590642,233.751559 659.358642,231.255559 L659.566642,234.115559 C659.618642,234.583559 659.878642,234.895559 660.346642,234.895559 L665.442642,234.895559 C665.910642,234.895559 666.222642,234.583559 666.222642,234.115559 L666.222642,210.195559 C666.222642,209.727559 665.910642,209.415559 665.442642,209.415559 L665.442642,209.415559 Z M687.003142,208.843559 C683.987142,208.843559 681.491142,210.195559 679.619142,212.171559 L679.619142,197.715559 C679.619142,197.247559 679.307142,196.935559 678.839142,196.935559 L673.535142,196.935559 C673.067142,196.935559 672.755142,197.247559 672.755142,197.715559 L672.755142,234.115559 C672.755142,234.583559 673.067142,234.895559 673.535142,234.895559 L678.319142,234.895559 C678.787142,234.895559 679.047142,234.583559 679.099142,234.115559 L679.307142,231.931559 C681.127142,234.063559 683.675142,235.571559 687.003142,235.571559 C694.127142,235.571559 699.327142,229.643559 699.327142,222.207559 C699.327142,214.771559 694.127142,208.843559 687.003142,208.843559 L687.003142,208.843559 Z M686.171142,229.331559 C682.427142,229.331559 679.671142,226.003559 679.671142,222.155559 C679.671142,218.307559 682.427142,215.083559 686.171142,215.083559 C689.967142,215.083559 692.723142,218.099559 692.723142,222.155559 C692.723142,226.263559 689.967142,229.331559 686.171142,229.331559 L686.171142,229.331559 Z M720.003642,208.843559 C716.311642,208.843559 713.607642,210.871559 711.943642,213.575559 L711.943642,197.715559 C711.943642,197.247559 711.631642,196.935559 711.163642,196.935559 L705.859642,196.935559 C705.391642,196.935559 705.079642,197.247559 705.079642,197.715559 L705.079642,234.115559 C705.079642,234.583559 705.391642,234.895559 705.859642,234.895559 L711.163642,234.895559 C711.631642,234.895559 711.943642,234.583559 711.943642,234.115559 L711.943642,220.179559 C711.943642,218.983559 713.711642,215.187559 717.559642,215.187559 C720.055642,215.187559 722.343642,216.643559 722.343642,220.855559 L722.343642,234.115559 C722.343642,234.583559 722.655642,234.895559 723.123642,234.895559 L728.427642,234.895559 C728.895642,234.895559 729.207642,234.583559 729.207642,234.115559 L729.207642,219.607559 C729.207642,212.795559 725.203642,208.843559 720.003642,208.843559 L720.003642,208.843559 Z M758.828142,209.415559 L753.524142,209.415559 C753.056142,209.415559 752.744142,209.727559 752.744142,210.195559 L752.744142,224.287559 C752.744142,226.107559 750.924142,229.227559 747.232142,229.227559 C744.788142,229.227559 742.344142,227.771559 742.344142,223.559559 L742.344142,210.195559 C742.344142,209.727559 742.032142,209.415559 741.564142,209.415559 L736.260142,209.415559 C735.792142,209.415559 735.480142,209.727559 735.480142,210.195559 L735.480142,224.807559 C735.480142,231.619559 739.432142,235.571559 745.152142,235.571559 C748.376142,235.571559 750.976142,233.751559 752.744142,231.255559 L752.952142,234.115559 C753.004142,234.583559 753.264142,234.895559 753.732142,234.895559 L758.828142,234.895559 C759.296142,234.895559 759.608142,234.583559 759.608142,234.115559 L759.608142,210.195559 C759.608142,209.727559 759.296142,209.415559 758.828142,209.415559 L758.828142,209.415559 Z M780.388642,208.843559 C777.372642,208.843559 774.876642,210.195559 773.004642,212.171559 L773.004642,197.715559 C773.004642,197.247559 772.692642,196.935559 772.224642,196.935559 L766.920642,196.935559 C766.452642,196.935559 766.140642,197.247559 766.140642,197.715559 L766.140642,234.115559 C766.140642,234.583559 766.452642,234.895559 766.920642,234.895559 L771.704642,234.895559 C772.172642,234.895559 772.432642,234.583559 772.484642,234.115559 L772.692642,231.931559 C774.512642,234.063559 777.060642,235.571559 780.388642,235.571559 C787.512642,235.571559 792.712642,229.643559 792.712642,222.207559 C792.712642,214.771559 787.512642,208.843559 780.388642,208.843559 L780.388642,208.843559 Z M779.556642,229.331559 C775.812642,229.331559 773.056642,226.003559 773.056642,222.155559 C773.056642,218.307559 775.812642,215.083559 779.556642,215.083559 C783.352642,215.083559 786.108642,218.099559 786.108642,222.155559 C786.108642,226.263559 783.352642,229.331559 779.556642,229.331559 L779.556642,229.331559 Z" transform="translate(-600 -196)"/>
</svg>
