<svg xmlns="http://www.w3.org/2000/svg" width="350" height="200" viewBox="0 0 350 200" xmlns:xlink="http://www.w3.org/1999/xlink">
  <defs>
    <rect id="a" width="236.634" height="155.573" x=".366" y=".072" rx="6"/>
    <filter id="b" width="200%" height="200%" x="-50%" y="-50%" filterUnits="objectBoundingBox">
      <feOffset dy="2" in="SourceAlpha" result="shadowOffsetOuter1"/>
      <feGaussianBlur stdDeviation="2" in="shadowOffsetOuter1" result="shadowBlurOuter1"/>
      <feColorMatrix values="0 0 0 0 0 0 0 0 0 0 0 0 0 0 0 0 0 0 0.2 0" in="shadowBlurOuter1"/>
    </filter>
  </defs>
  <g fill="none" fill-rule="evenodd" transform="translate(56 19)">
    <mask id="c" fill="white">
      <use xlink:href="#a"/>
    </mask>
    <use fill="black" filter="url(#b)" xlink:href="#a"/>
    <use fill="#FFFFFF" xlink:href="#a"/>
    <g mask="url(#c)">
      <g transform="translate(-4)">
        <rect width="344.777" height="39.575" x="4.366" y="14.843" fill="#F1F1F1"/>
        <g transform="translate(15.57 27.748)">
          <path fill="#FF302F" d="M45.0951888,8.93824894 L46.3863822,9.76257231 C45.9673107,10.353699 44.9649368,11.3678338 43.2320192,11.3678338 C41.0800301,11.3678338 39.4773646,9.77341874 39.4773646,7.74514918 C39.4773646,5.58672332 41.0970195,4.12246458 43.0507991,4.12246458 C45.0159049,4.12246458 45.9786369,5.6192624 46.290109,6.4273163 L46.460003,6.83947802 L41.3971653,8.84605484 C41.7822581,9.57276103 42.3825498,9.94153734 43.2320192,9.94153734 C44.0814887,9.94153734 44.6704541,9.540222 45.0951888,8.93824894 L45.0951888,8.93824894 L45.0951888,8.93824894 Z M41.1253352,7.63126238 L44.5062233,6.28631361 C44.31934,5.83618963 43.7643534,5.51622197 43.1017673,5.51622197 C42.2579611,5.51622197 41.0856932,6.2320818 41.1253352,7.63126238 L41.1253352,7.63126238 L41.1253352,7.63126238 Z"/>
          <polygon fill="#20B15A" points="37.037 .429 38.668 .429 38.668 11.037 37.037 11.037 37.037 .429"/>
          <path fill="#3686F7" d="M34.4654951,4.40446996 L36.039845,4.40446996 L36.039845,10.8472085 C36.039845,13.5208365 34.3918745,14.621742 32.4437579,14.621742 C30.6089041,14.621742 29.5045938,13.4394888 29.0911855,12.4795858 L30.5352834,11.9047287 C30.7957874,12.4958554 31.4243947,13.1954456 32.4437579,13.1954456 C33.6953096,13.1954456 34.4654951,12.4524699 34.4654951,11.0641356 L34.4654951,10.5435104 L34.4088638,10.5435104 C34.0350973,10.9773648 33.321543,11.3678338 32.4154423,11.3678338 C30.5239571,11.3678338 28.7910396,9.78968826 28.7910396,7.75599553 C28.7910396,5.71145647 30.5239571,4.11704139 32.4154423,4.11704139 C33.3158799,4.11704139 34.0350973,4.50208722 34.4088638,4.9250953 L34.4654951,4.9250953 L34.4654951,4.40446996 L34.4654951,4.40446996 L34.4654951,4.40446996 Z M34.5787577,7.75599553 C34.5787577,6.47612493 33.6896463,5.54333787 32.5570205,5.54333787 C31.4130684,5.54333787 30.4503365,6.47612493 30.4503365,7.75599553 C30.4503365,9.01959661 31.4130684,9.93611408 32.5570205,9.93611408 C33.6896463,9.94153734 34.5787577,9.01959661 34.5787577,7.75599553 L34.5787577,7.75599553 L34.5787577,7.75599553 Z"/>
          <path fill="#FF302F" d="M19.8376322,7.72887963 C19.8376322,9.81680421 18.1386934,11.3515642 16.0546618,11.3515642 C13.9706302,11.3515642 12.2716914,9.81138095 12.2716914,7.72887963 C12.2716914,5.63010876 13.9706302,4.10077186 16.0546618,4.10077186 C18.1386934,4.10077186 19.8376322,5.63010876 19.8376322,7.72887963 L19.8376322,7.72887963 L19.8376322,7.72887963 Z M18.1839984,7.72887963 C18.1839984,6.4273163 17.1986139,5.53249151 16.0546618,5.53249151 C14.9107097,5.53249151 13.9253252,6.4273163 13.9253252,7.72887963 C13.9253252,9.01959661 14.9107097,9.92526782 16.0546618,9.92526782 C17.1986139,9.92526782 18.1839984,9.01959661 18.1839984,7.72887963 L18.1839984,7.72887963 L18.1839984,7.72887963 Z"/>
          <path fill="#FFBA40" d="M28.1001378,7.74514918 C28.1001378,9.83307372 26.401199,11.3678338 24.3171674,11.3678338 C22.2331358,11.3678338 20.5341971,9.83307372 20.5341971,7.74514918 C20.5341971,5.64637831 22.2331358,4.12246458 24.3171674,4.12246458 C26.401199,4.12246458 28.1001378,5.64095512 28.1001378,7.74514918 L28.1001378,7.74514918 L28.1001378,7.74514918 Z M26.4408409,7.74514918 C26.4408409,6.44358584 25.4554564,5.54876106 24.3115043,5.54876106 C23.1675522,5.54876106 22.1821677,6.44358584 22.1821677,7.74514918 C22.1821677,9.03586613 23.1675522,9.94153734 24.3115043,9.94153734 C25.4611196,9.94153734 26.4408409,9.03044295 26.4408409,7.74514918 L26.4408409,7.74514918 L26.4408409,7.74514918 Z"/>
          <path fill="#3686F7" d="M6.0535755,9.77884183 C3.68072433,9.77884183 1.82321792,7.94580685 1.82321792,5.6734942 C1.82321792,3.40118157 3.68072433,1.56814655 6.0535755,1.56814655 C7.33344272,1.56814655 8.26785905,2.05080961 8.9587608,2.66905219 L10.0970498,1.57899291 C9.13431778,0.695014483 7.84878748,0.0225400939 6.0535755,0.0225400939 C2.8029393,0.0225400939 0.0676478491,2.56058858 0.0676478491,5.6734942 C0.0676478491,8.78639986 2.8029393,11.3244483 6.0535755,11.3244483 C7.80914558,11.3244483 9.13431778,10.7712839 10.1706704,9.74087962 C11.2353388,8.72132171 11.5638003,7.28960201 11.5638003,6.12904138 C11.5638003,5.76568828 11.5184953,5.39148882 11.4675271,5.11490661 L6.0535755,5.11490661 L6.0535755,6.6225508 L9.91016655,6.6225508 C9.79690396,7.56618421 9.48543188,8.2115427 9.02671835,8.65082032 C8.47173171,9.1877152 7.59394666,9.77884183 6.0535755,9.77884183 L6.0535755,9.77884183 L6.0535755,9.77884183 L6.0535755,9.77884183 Z"/>
        </g>
        <rect width="270.65" height="20.648" x="78.493" y="25.167" fill="#FFFFFF"/>
        <rect width="98.262" height="7.743" x="78.493" y="75.926" fill="#56D488"/>
        <rect width="98.262" height="7.743" x="78.493" y="125.824" fill="#E7E5FF"/>
        <rect width="173.077" height="7.743" x="78.493" y="175.723" fill="#E7E5FF"/>
        <rect width="196.391" height="16.346" x="78.493" y="94.853" fill="#F1F1F1"/>
        <rect width="196.391" height="16.346" x="78.493" y="146.472" fill="#F1F1F1"/>
        <rect width="196.391" height="16.346" x="78.493" y="180.629" fill="#F1F1F1"/>
        <polygon fill="#56D488" points="40.284 87.188 32.779 79.697 30.224 82.23 40.284 92.272 61.881 70.716 59.344 68.183"/>
        <rect width="269.792" height="14.843" fill="#D8D8D8"/>
        <circle cx="11.787" cy="7.421" r="3.056" fill="#FF635B"/>
        <circle cx="21.391" cy="7.421" r="3.056" fill="#FFC330"/>
        <circle cx="30.995" cy="7.421" r="3.056" fill="#29CF42"/>
      </g>
    </g>
  </g>
</svg>
