<svg xmlns="http://www.w3.org/2000/svg" width="350" height="200" viewBox="0 0 350 200" xmlns:xlink="http://www.w3.org/1999/xlink">
  <defs>
    <rect id="a" width="236.634" height="155.573" x=".366" y=".072" rx="6"/>
    <filter id="b" width="200%" height="200%" x="-50%" y="-50%" filterUnits="objectBoundingBox">
      <feOffset dy="2" in="SourceAlpha" result="shadowOffsetOuter1"/>
      <feGaussianBlur stdDeviation="2" in="shadowOffsetOuter1" result="shadowBlurOuter1"/>
      <feColorMatrix values="0 0 0 0 0 0 0 0 0 0 0 0 0 0 0 0 0 0 0.2 0" in="shadowBlurOuter1"/>
    </filter>
    <polygon id="d" points="0 0 24 0 24 24 0 24"/>
  </defs>
  <g fill="none" fill-rule="evenodd">
    <g transform="translate(56 19)">
      <mask id="c" fill="white">
        <use xlink:href="#a"/>
      </mask>
      <use fill="black" filter="url(#b)" xlink:href="#a"/>
      <use fill="#FFFFFF" xlink:href="#a"/>
      <g mask="url(#c)">
        <g transform="translate(-4)">
          <rect width="270.65" height="20.648" x="78.493" y="25.167" fill="#FFFFFF"/>
          <rect width="173.077" height="7.743" x="78.493" y="175.723" fill="#E7E5FF"/>
          <rect width="196.391" height="16.346" x="78.493" y="180.629" fill="#F1F1F1"/>
          <rect width="269.792" height="14.843" fill="#D8D8D8"/>
          <circle cx="11.787" cy="7.421" r="3.056" fill="#FF635B"/>
          <circle cx="21.391" cy="7.421" r="3.056" fill="#FFC330"/>
          <circle cx="30.995" cy="7.421" r="3.056" fill="#29CF42"/>
        </g>
      </g>
    </g>
    <g transform="translate(130 79)">
      <mask id="e" fill="white">
        <use xlink:href="#d"/>
      </mask>
      <path fill="#CBCBCB" d="M12,17 C13.1,17 14,16.1 14,15 C14,13.9 13.1,13 12,13 C10.9,13 10,13.9 10,15 C10,16.1 10.9,17 12,17 L12,17 Z M18,8 L17,8 L17,6 C17,3.24 14.76,1 12,1 C9.24,1 7,3.24 7,6 L7,8 L6,8 C4.9,8 4,8.9 4,10 L4,20 C4,21.1 4.9,22 6,22 L18,22 C19.1,22 20,21.1 20,20 L20,10 C20,8.9 19.1,8 18,8 L18,8 Z M8.9,6 C8.9,4.29 10.29,2.9 12,2.9 C13.71,2.9 15.1,4.29 15.1,6 L15.1,8 L8.9,8 L8.9,6 L8.9,6 Z M18,20 L6,20 L6,10 L18,10 L18,20 L18,20 Z" mask="url(#e)"/>
    </g>
    <g transform="translate(197 115)">
      <polygon points="0 0 24 0 24 24 0 24"/>
      <path fill="#CBCBCB" d="M12,17 C13.1,17 14,16.1 14,15 C14,13.9 13.1,13 12,13 C10.9,13 10,13.9 10,15 C10,16.1 10.9,17 12,17 L12,17 Z M18,8 L17,8 L17,6 C17,3.24 14.76,1 12,1 C9.24,1 7,3.24 7,6 L8.9,6 C8.9,4.29 10.29,2.9 12,2.9 C13.71,2.9 15.1,4.29 15.1,6 L15.1,8 L6,8 C4.9,8 4,8.9 4,10 L4,20 C4,21.1 4.9,22 6,22 L18,22 C19.1,22 20,21.1 20,20 L20,10 C20,8.9 19.1,8 18,8 L18,8 Z M18,20 L6,20 L6,10 L18,10 L18,20 L18,20 Z"/>
    </g>
    <path stroke="#D6D6D6" stroke-width="2" d="M144.870056,141.129944 L206.5,79.5" stroke-linecap="square"/>
  </g>
</svg>
