<svg xmlns="http://www.w3.org/2000/svg" width="26" height="21" viewBox="0 0 26 21">
  <path fill="#787878" fill-rule="evenodd" d="M25.8568354,2.48151899 C24.8909197,2.90919059 23.8664605,3.18996009 22.8174684,3.31450633 C23.908481,2.65891139 24.7477215,1.62286076 25.1426582,0.386544304 C24.1039375,1.00293224 22.9674822,1.43720061 21.7824051,1.67058228 C20.7822297,0.602464719 19.3835438,-0.00253997669 17.9202532,1.82807345e-14 C14.999038,1.76961107e-14 12.6281013,2.36863291 12.6281013,5.29050633 C12.6281013,5.70568354 12.6748354,6.11032911 12.7663291,6.49670886 C8.36772152,6.27570886 4.46936709,4.17020253 1.85883544,0.968582278 C1.40301266,1.74907595 1.14301266,2.65891139 1.14301266,3.62881013 C1.14301266,5.46362025 2.07687342,7.08335443 3.49650633,8.03235443 C2.65599234,8.00659335 1.83391395,7.77963019 1.09924051,7.37050633 L1.09924051,7.43797468 C1.09924051,10.0007848 2.92351899,12.1393671 5.34316456,12.6264557 C4.56388217,12.8374575 3.74680891,12.8684072 2.95379747,12.716962 C3.62749367,14.8193418 5.58243038,16.3487342 7.89708861,16.3931646 C6.0863038,17.81 3.80488608,18.6574684 1.32501266,18.6574684 C0.903333546,18.6569859 0.48203088,18.6322615 0.0631898734,18.5834177 C2.40483544,20.0841772 5.187,20.9612658 8.17518987,20.9612658 C17.9087342,20.9612658 23.2305063,12.8973165 23.2305063,5.9043038 C23.2305063,5.67556962 23.2305063,5.44683544 23.2140506,5.21974684 C24.249577,4.47054054 25.1438384,3.54340595 25.8551899,2.48151899 L25.8568354,2.48151899 Z" opacity=".7"/>
</svg>
