<?xml version="1.0" encoding="utf-8"?>
<!-- Generator: Adobe Illustrator 16.0.0, SVG Export Plug-In . SVG Version: 6.00 Build 0)  -->
<!DOCTYPE svg PUBLIC "-//W3C//DTD SVG 1.1//EN" "http://www.w3.org/Graphics/SVG/1.1/DTD/svg11.dtd">
<svg version="1.1" id="Layer_1" xmlns="http://www.w3.org/2000/svg" xmlns:xlink="http://www.w3.org/1999/xlink" x="0px" y="0px"
	 width="260px" height="53.549px" viewBox="0 0 260 53.549" style="enable-background:new 0 0 260 53.549;" xml:space="preserve">
<style type="text/css">
<![CDATA[
	.st0{fill:#FFFFFF;}
	.st1{fill:#666666;}
]]>
</style>
<g>
	<path class="st1" d="M25.8,41.585c0.576-0.506,1.081-0.506,1.585,0l4.396,4.18c0.433,0.432,0.505,1.009,0.072,1.513
		c-3.315,3.82-8.216,6.271-13.837,6.271C7.855,53.549,0,45.405,0,35.025c0-10.378,7.855-18.521,18.017-18.521
		c5.477,0,10.306,2.45,13.621,6.27c0.432,0.505,0.36,1.081-0.072,1.514l-4.396,4.252c-0.504,0.505-1.009,0.433-1.585-0.072
		c-2.018-1.801-4.108-3.17-7.351-3.17c-5.333,0-9.081,4.179-9.081,9.729c0,5.549,3.748,9.73,9.081,9.73
		C21.62,44.756,23.782,43.386,25.8,41.585z"/>
	<path class="st1" d="M39.706,0h7.351c0.648,0,1.081,0.433,1.081,1.081v50.448c0,0.649-0.433,1.081-1.081,1.081h-7.351
		c-0.648,0-1.081-0.432-1.081-1.081V1.081C38.625,0.433,39.058,0,39.706,0z"/>
	<path class="st1" d="M89.215,18.377v33.152c0,0.649-0.432,1.081-1.081,1.081h-7.062c-0.648,0-1.009-0.432-1.081-1.081l-0.289-3.963
		c-2.45,3.459-6.053,5.982-10.521,5.982c-7.928,0-13.405-5.478-13.405-14.92V18.377c0-0.647,0.433-1.081,1.081-1.081h7.351
		c0.649,0,1.081,0.434,1.081,1.081v18.522c0,5.837,3.387,7.856,6.774,7.856c5.117,0,7.639-4.324,7.639-6.848V18.377
		c0-0.647,0.433-1.081,1.081-1.081h7.351C88.783,17.296,89.215,17.729,89.215,18.377z"/>
	<path class="st1" d="M133.967,35.025c0,10.307-7.208,18.523-17.081,18.523c-4.613,0-8.144-2.092-10.666-5.046l-0.289,3.026
		c-0.072,0.649-0.433,1.081-1.081,1.081h-6.63c-0.648,0-1.081-0.432-1.081-1.081V1.081C97.139,0.433,97.571,0,98.22,0h7.352
		c0.648,0,1.081,0.433,1.081,1.081v20.035c2.595-2.739,6.054-4.612,10.234-4.612C126.759,16.504,133.967,24.72,133.967,35.025z
		 M124.813,34.953c0-5.621-3.82-9.802-9.081-9.802c-5.189,0-9.009,4.469-9.009,9.802c0,5.334,3.819,9.945,9.009,9.945
		C120.994,44.898,124.813,40.646,124.813,34.953z"/>
	<path class="st1" d="M174.247,31.422v20.107c0,0.649-0.432,1.081-1.081,1.081h-7.352c-0.647,0-1.081-0.432-1.081-1.081V33.152
		c0-5.839-3.171-7.855-6.629-7.855c-5.333,0-7.784,5.26-7.784,6.918v19.314c0,0.649-0.432,1.081-1.081,1.081h-7.35
		c-0.649,0-1.081-0.432-1.081-1.081V1.081c0-0.648,0.432-1.081,1.081-1.081h7.35c0.649,0,1.081,0.433,1.081,1.081v21.981
		c2.307-3.748,6.054-6.559,11.17-6.559C168.697,16.504,174.247,21.981,174.247,31.422z"/>
	<path class="st1" d="M215.25,18.377v33.152c0,0.649-0.432,1.081-1.081,1.081h-7.062c-0.649,0-1.009-0.432-1.081-1.081l-0.288-3.963
		c-2.451,3.459-6.054,5.982-10.522,5.982c-7.927,0-13.404-5.478-13.404-14.92V18.377c0-0.647,0.432-1.081,1.081-1.081h7.351
		c0.648,0,1.081,0.434,1.081,1.081v18.522c0,5.837,3.388,7.856,6.775,7.856c5.115,0,7.639-4.324,7.639-6.848V18.377
		c0-0.647,0.433-1.081,1.081-1.081h7.351C214.818,17.296,215.25,17.729,215.25,18.377z"/>
	<path class="st1" d="M260,35.025c0,10.307-7.208,18.523-17.079,18.523c-4.614,0-8.145-2.092-10.668-5.046l-0.287,3.026
		c-0.072,0.649-0.433,1.081-1.081,1.081h-6.631c-0.649,0-1.081-0.432-1.081-1.081V1.081c0-0.648,0.432-1.081,1.081-1.081h7.35
		c0.649,0,1.081,0.433,1.081,1.081v20.035c2.597-2.739,6.055-4.612,10.236-4.612C252.792,16.504,260,24.72,260,35.025z
		 M250.848,34.953c0-5.621-3.82-9.802-9.08-9.802c-5.19,0-9.01,4.469-9.01,9.802c0,5.334,3.819,9.945,9.01,9.945
		C247.027,44.898,250.848,40.646,250.848,34.953z"/>
</g>
</svg>
